<?xml version="1.0" encoding="iso-8859-1"?>
<!-- Generator: Adobe Illustrator 19.0.0, SVG Export Plug-In . SVG Version: 6.00 Build 0)  -->
<svg version="1.1" id="Layer_1" xmlns="http://www.w3.org/2000/svg" xmlns:xlink="http://www.w3.org/1999/xlink" x="0px" y="0px"
	 viewBox="0 0 473.931 473.931" style="enable-background:new 0 0 473.931 473.931;" xml:space="preserve">
<circle style="fill:#E23942;" cx="236.966" cy="236.966" r="236.966"/>
<g>
	<path style="fill:#6B4E15;" d="M252.704,270.832c0,8.527-6.915,15.45-15.45,15.45l0,0c-8.527,0-15.442-6.922-15.442-15.45V136.413
		c0-8.527,6.915-8.692,15.442-8.692l0,0c8.535,0,15.45,0.165,15.45,8.692V270.832z"/>
	<path style="fill:#6B4E15;" d="M363.291,270.832c0,8.527-6.915,15.45-15.45,15.45l0,0c-8.535,0-15.45-6.922-15.45-15.45V136.413
		c0-8.527,6.915-8.692,15.45-8.692l0,0c8.535,0,15.45,0.165,15.45,8.692V270.832z"/>
	<path style="fill:#6B4E15;" d="M287.24,168.473v54.847l-106.917-54.847v54.779L73.544,168.473v173.214
		c0,6.073,4.464,10.997,9.968,10.997H384.47c5.504,0,9.968-4.924,9.968-10.997V223.462L287.24,168.473z"/>
</g>
<path style="fill:#D2D2D2;" d="M287.24,183.597v54.847l-106.917-54.847v54.776L73.544,183.597v173.21
	c0,6.073,4.464,10.997,9.968,10.997H384.47c5.504,0,9.968-4.924,9.968-10.997V238.582L287.24,183.597z"/>
<g>
	<path style="fill:#FFFFFF;" d="M148.746,316.085c0,2.264-1.658,4.108-3.712,4.108h-34.114c-2.054,0-3.719-1.841-3.719-4.108v-37.62
		c0-2.26,1.665-4.105,3.719-4.105h34.114c2.054,0,3.712,1.841,3.712,4.105V316.085z"/>
	<path style="fill:#FFFFFF;" d="M258.032,316.085c0,2.264-1.673,4.108-3.727,4.108h-34.114c-2.054,0-3.712-1.841-3.712-4.108v-37.62
		c0-2.26,1.658-4.105,3.712-4.105h34.114c2.054,0,3.727,1.841,3.727,4.105V316.085z"/>
	<path style="fill:#FFFFFF;" d="M362.857,316.085c0,2.264-1.65,4.108-3.712,4.108h-34.106c-2.054,0-3.719-1.841-3.719-4.108v-37.62
		c0-2.26,1.665-4.105,3.719-4.105h34.106c2.062,0,3.712,1.841,3.712,4.105V316.085z"/>
	<g style="opacity:0.7;">
		<ellipse style="fill:#FFFFFF;" cx="350.117" cy="99.912" rx="9.949" ry="9.295"/>
		<ellipse style="fill:#FFFFFF;" cx="341.51" cy="90.438" rx="9.946" ry="9.291"/>
		<ellipse style="fill:#FFFFFF;" cx="353.11" cy="94.143" rx="9.949" ry="9.295"/>
		<ellipse style="fill:#FFFFFF;" cx="346.861" cy="113.836" rx="9.946" ry="9.291"/>
		<ellipse style="fill:#FFFFFF;" cx="341.585" cy="104.361" rx="9.946" ry="9.291"/>
		<ellipse style="fill:#FFFFFF;" cx="343.755" cy="80.302" rx="9.949" ry="9.295"/>
		<ellipse style="fill:#FFFFFF;" cx="353.11" cy="84.859" rx="9.949" ry="9.291"/>
	</g>
	<g style="opacity:0.7;">
		<ellipse style="fill:#FFFFFF;" cx="242.129" cy="85.911" rx="15.18" ry="14.185"/>
		<ellipse style="fill:#FFFFFF;" cx="229.033" cy="71.468" rx="15.18" ry="14.181"/>
		<ellipse style="fill:#FFFFFF;" cx="246.732" cy="77.144" rx="15.18" ry="14.185"/>
		<path style="fill:#FFFFFF;" d="M252.367,107.179c0,7.835-6.784,14.181-15.18,14.181c-8.374,0-15.18-6.346-15.18-14.181
			s6.803-14.181,15.18-14.181C245.587,93.001,252.367,99.347,252.367,107.179z"/>
		<path style="fill:#FFFFFF;" d="M244.326,92.721c0,7.828-6.788,14.181-15.165,14.181c-8.4,0-15.18-6.354-15.18-14.181
			c0-7.835,6.78-14.185,15.18-14.185C237.534,78.536,244.326,84.886,244.326,92.721z"/>
		<ellipse style="fill:#FFFFFF;" cx="232.438" cy="56.014" rx="15.18" ry="14.189"/>
		<ellipse style="fill:#FFFFFF;" cx="246.732" cy="62.963" rx="15.18" ry="14.181"/>
	</g>
</g>
<g>
</g>
<g>
</g>
<g>
</g>
<g>
</g>
<g>
</g>
<g>
</g>
<g>
</g>
<g>
</g>
<g>
</g>
<g>
</g>
<g>
</g>
<g>
</g>
<g>
</g>
<g>
</g>
<g>
</g>
</svg>
