<?xml version="1.0" encoding="utf-8"?>
<!-- Generator: Adobe Illustrator 25.2.1, SVG Export Plug-In . SVG Version: 6.00 Build 0)  -->
<svg version="1.1" id="Layer_1" xmlns="http://www.w3.org/2000/svg" xmlns:xlink="http://www.w3.org/1999/xlink" x="0px" y="0px"
	 viewBox="0 0 1024 1024" style="enable-background:new 0 0 1024 1024;" xml:space="preserve">
<style type="text/css">
	.st0{display:none;fill:#DB2745;}
	.st1{fill:#FFFFFF;}
</style>
<rect id="bg" x="0" y="0" class="st0" width="1024" height="1024"/>
<g>
	<path class="st1" d="M908.75,767.73c-16.94,26.31-36.5,50.93-58.54,73.65c-1.67,1.72-3.35,3.42-5.04,5.11
		c-43.44,43.42-94.03,77.53-150.36,101.35c-58.14,24.59-119.89,37.1-183.51,37.18c-63.45-0.08-125.03-12.59-183.01-37.18
		c-56.18-23.83-106.63-57.94-149.95-101.35c-43.3-43.44-77.31-94.03-101.07-150.36C52.67,637.8,40.19,575.84,40.19,512
		s12.48-125.8,37.08-184.12c23.76-56.33,57.78-106.92,101.07-150.36c43.32-43.42,93.77-77.53,149.95-101.35
		c57.99-24.59,119.59-37.1,183.05-37.18c27.79,0.04,55.21,2.43,82.13,7.2c34.72,6.12,68.6,16.14,101.34,29.98
		c56.33,23.83,106.92,57.94,150.36,101.35c0.59,0.59,1.16,1.16,1.72,1.74c1.12,1.12,2.22,2.23,3.32,3.36
		c22.04,22.71,41.6,47.34,58.54,73.65h0.13h45.47C866.09,103.08,701.01,0,511.91,0c-0.23,0-0.47,0-0.7,0c-0.17,0-0.35,0-0.52,0
		c-282.77,0-512,229.23-512,512s229.23,512,512,512c0.17,0,0.35,0,0.52,0c0.23,0,0.47,0,0.7,0c189.1,0,354.19-103.08,442.43-256.27
		h-45.47H908.75z"/>
	<path class="st1" d="M843.18,256.27h0.24h54.06C814.83,132.55,673.9,51.06,513.93,51.06C259.37,51.06,53,257.44,53,512
		s206.38,460.94,460.94,460.94c159.96,0,300.89-81.49,383.54-205.2h-54.06h-0.24c-55.51,72-133.82,125.53-224.04,149.72
		c-1.52,0.42-3.06,0.81-4.6,1.2c-0.01,0.01-0.01,0.01-0.03,0c-6.15,1.56-12.35,3-18.6,4.3c-1.65,0.35-3.29,0.67-4.95,0.99
		c-3.29,0.64-6.6,1.24-9.92,1.8c-3.43,0.59-6.88,1.13-10.34,1.62c-0.01,0-0.03,0.01-0.04,0c-5.52,0.8-11.08,1.48-16.67,2.05
		c-1.86,0.2-3.74,0.38-5.61,0.54c-12.42,1.12-24.99,1.67-37.7,1.67c-12.68,0-25.22-0.56-37.61-1.66c-3.52-0.32-7.02-0.68-10.51-1.07
		c-6.04-0.68-12.04-1.51-18-2.46c-2.97-0.47-5.93-0.98-8.87-1.51c-0.01,0.01-0.03,0-0.04,0c-3.96-0.71-7.91-1.49-11.83-2.32
		c-1.16-0.24-2.32-0.49-3.47-0.75c-0.27-0.06-0.53-0.11-0.8-0.18c-1.06-0.22-2.12-0.46-3.18-0.71c-1.24-0.28-2.48-0.57-3.71-0.86
		c-0.82-0.2-1.65-0.39-2.47-0.6c-1.57-0.38-3.12-0.78-4.68-1.18c-0.11-0.03-0.22-0.05-0.32-0.09c-0.33-0.07-0.66-0.15-0.98-0.25
		c-0.52-0.14-1.03-0.28-1.55-0.42c-0.13-0.03-0.25-0.07-0.38-0.1c-0.13-0.01-0.25-0.06-0.36-0.1
		C261.31,879.59,149.62,770.4,108.27,631.27c-0.2-0.61-0.38-1.24-0.56-1.87c-0.03-0.11-0.07-0.24-0.1-0.35
		c-0.21-0.75-0.42-1.49-0.63-2.23c-0.43-1.49-0.84-2.99-1.26-4.48c-0.46-1.66-0.89-3.32-1.33-4.98c-0.06-0.2-0.1-0.38-0.14-0.56
		c-0.42-1.6-0.82-3.19-1.21-4.8c-0.46-1.91-0.92-3.82-1.35-5.73c-0.91-3.91-1.74-7.83-2.53-11.76c-1.09-5.43-2.06-10.88-2.93-16.38
		c-0.95-5.97-1.77-11.97-2.46-18.01c-0.39-3.49-0.75-6.99-1.07-10.51c-1.1-12.39-1.66-24.93-1.66-37.61
		c0-12.68,0.56-25.22,1.66-37.61c0.32-3.52,0.68-7.02,1.07-10.51c0.68-6.04,1.51-12.04,2.46-18.01c0.86-5.5,1.84-10.95,2.93-16.38
		c0.78-3.93,1.62-7.85,2.53-11.76c0.43-1.91,0.89-3.82,1.35-5.73c0.39-1.6,0.8-3.19,1.21-4.8c0.04-0.18,0.08-0.36,0.14-0.56
		c0.43-1.66,0.86-3.32,1.33-4.98c0.42-1.49,0.82-2.99,1.26-4.48c0.21-0.74,0.42-1.48,0.63-2.23c0.03-0.11,0.07-0.24,0.1-0.35
		c0.18-0.63,0.36-1.26,0.56-1.87c41.35-139.13,153.04-248.31,293.67-286.11c0.11-0.04,0.24-0.08,0.36-0.1
		c0.13-0.03,0.25-0.07,0.38-0.1c0.52-0.14,1.03-0.28,1.55-0.42c0.32-0.1,0.64-0.18,0.98-0.25c0.1-0.04,0.21-0.06,0.32-0.09
		c1.55-0.4,3.11-0.8,4.68-1.18c0.82-0.21,1.65-0.4,2.47-0.6c1.23-0.29,2.47-0.59,3.71-0.86c1.06-0.25,2.12-0.49,3.18-0.71
		c0.27-0.07,0.53-0.13,0.8-0.18c1.16-0.27,2.32-0.52,3.47-0.75c3.92-0.82,7.87-1.6,11.83-2.32c0.01,0,0.03-0.01,0.04,0
		c2.94-0.54,5.9-1.05,8.87-1.51c5.96-0.95,11.96-1.77,18-2.46c3.49-0.39,6.99-0.75,10.51-1.07c12.39-1.1,24.93-1.66,37.61-1.66
		c12.71,0,25.28,0.56,37.7,1.67c1.87,0.17,3.75,0.35,5.61,0.54c5.59,0.57,11.15,1.26,16.67,2.05c0.01-0.01,0.03,0,0.04,0
		c3.46,0.49,6.91,1.03,10.34,1.62c3.32,0.56,6.63,1.16,9.92,1.8c1.66,0.32,3.31,0.64,4.95,0.99c6.25,1.3,12.44,2.73,18.6,4.3
		c0.01-0.01,0.01-0.01,0.03,0c1.55,0.39,3.08,0.78,4.6,1.2C709.36,130.73,787.67,184.26,843.18,256.27z"/>
	<path class="st1" d="M982.2,463.72l-5.61-6.29l-5.72-6.39l-60.88-68.18c8.62,26.59,14.66,54.34,17.82,82.94H386.09v41.32H930.3
		c0.01,1.62,0.03,3.25,0.03,4.88c0,1.63-0.01,3.26-0.03,4.88H386.09v41.32H927.8c-3.15,28.6-9.19,56.35-17.82,82.94l60.88-68.18
		l5.72-6.39l5.61-6.29l43.12-48.28L982.2,463.72z"/>
	
		<ellipse transform="matrix(0.9871 -0.1602 0.1602 0.9871 -43.1703 112.8733)" class="st1" cx="678.52" cy="324.2" rx="53.23" ry="53.23"/>
</g>
</svg>
